<svg id="ca7929c6-11bd-4904-aede-b1cfe13a50b6" data-name="Layer 1" xmlns="http://www.w3.org/2000/svg" viewBox="0 0 360 184.87"><title>chf_logo_white</title><path d="M251.17,398.4L216,337.48l35.17-60.92h70.34l35.17,60.92L321.52,398.4H251.17Zm59.23-96.89a5,5,0,0,1-3.29,1.55,25.34,25.34,0,0,1-4.26-.77,32.14,32.14,0,0,0-6.88-.77c-20.74,0-36.81,15-36.81,36s16.08,36,36.81,36c5.52,0,9.78-1.56,11.14-1.56a5.65,5.65,0,0,1,1.74.39,3.56,3.56,0,0,1,1.55,1.17V355.17c-2.92,3.49-7.27,6-14.44,6-12.78,0-24-9.79-24-23.64s11.25-23.63,24-23.63c7.16,0,11.52,2.53,14.44,6v-18.4Z" transform="translate(-216 -213.57)" fill="#fff"/><path d="M386.6,268.94V244.33a4.61,4.61,0,0,1,2.42-3.87H371.39a4.61,4.61,0,0,1,2.42,3.87v61.23a4.63,4.63,0,0,1-2.42,3.88H389a4.63,4.63,0,0,1-2.42-3.88V280.37h21.7v25.19a4.63,4.63,0,0,1-2.42,3.88h17.63a4.63,4.63,0,0,1-2.43-3.88V244.33a4.62,4.62,0,0,1,2.43-3.87H405.88a4.61,4.61,0,0,1,2.42,3.87v24.61H386.6Zm-25.73,66.47L325.7,274.49l35.17-60.92h70.35l35.17,60.92-35.17,60.92H360.87Z" transform="translate(-216 -213.57)" fill="#fff"/><path d="M470.49,398.43l-35.17-60.92,35.17-60.92h70.34L576,337.51l-35.17,60.92H470.49Zm19.78-30.36a4.61,4.61,0,0,1-2.42,3.87h17.63a4.62,4.62,0,0,1-2.42-3.87v-25.2H514.2a7.76,7.76,0,0,1,5.91,2.13v-15.7a7.74,7.74,0,0,1-5.91,2.14H503.06V314.39h17.82c3.49,0,5.23,1.16,6.68,3.09V303H487.85a4.61,4.61,0,0,1,2.42,3.88v61.23Z" transform="translate(-216 -213.57)" fill="#fff"/></svg>