<svg id="dffd4ce6-2df5-4fb1-93b9-5bee09a8ee8a" data-name="Layer 1" xmlns="http://www.w3.org/2000/svg" viewBox="0 0 648.84 70.6"><title>chf_logo_name_white</title><path d="M252.45,304.88v0.91q0.09,5.37-2,7.65t-7,2.28q-5.26,0-7.41-2.48t-2.15-8.51v-9.41q0-6.08,2.15-8.55t7.41-2.48q4.56,0,6.77,2.31t2.05,6.42v1.49h-6.21v-0.91a7.2,7.2,0,0,0-.61-3.56,2.15,2.15,0,0,0-2-1.18,2.69,2.69,0,0,0-2.53,1.35,9.26,9.26,0,0,0-.78,4.4V304a14.57,14.57,0,0,0,.72,5.54,2.61,2.61,0,0,0,2.58,1.56,2.29,2.29,0,0,0,2.15-1.33,8.57,8.57,0,0,0,.66-4v-0.91h6.21Z" transform="translate(-74.18 -265.03)" fill="#fff"/><path d="M256.71,284.75h5.6v11.12a6.29,6.29,0,0,1,5.17-2.29,4.36,4.36,0,0,1,3.49,1.56,6.06,6.06,0,0,1,1.33,4.09v16h-5.6V299.82a3,3,0,0,0-.46-1.88,1.81,1.81,0,0,0-1.5-.58,2,2,0,0,0-1.93,1.18,8.27,8.27,0,0,0-.5,3.73v13h-5.6V284.75Z" transform="translate(-74.18 -265.03)" fill="#fff"/><path d="M283.66,315.72q-3.89,0-5.62-1.95t-1.73-6.36v-4.2q0-5.3,1.76-7.47t6.07-2.17q4.54,0,6.19,1.88t1.64,7.09v3.09h-10.1v0.65a17,17,0,0,0,.44,4.89,1.76,1.76,0,0,0,1.83,1.19,2,2,0,0,0,1.84-.86,5.27,5.27,0,0,0,.43-2.84V308H292v0.63a6.39,6.39,0,0,1-2,5.29Q287.88,315.72,283.66,315.72Zm2.75-13.32V301.2a8.1,8.1,0,0,0-.48-3.38,1.84,1.84,0,0,0-1.79-.9,1.78,1.78,0,0,0-1.8,1.08,11.65,11.65,0,0,0-.48,4.09v0.3h4.54Z" transform="translate(-74.18 -265.03)" fill="#fff"/><path d="M295.36,294h5.26v2.05l0,0a6.23,6.23,0,0,1,9-1,4.23,4.23,0,0,1,.86,1.36,3.49,3.49,0,0,1,.48-0.74,5.56,5.56,0,0,1,4.68-2.1,5.06,5.06,0,0,1,4.06,1.58,7.15,7.15,0,0,1,1.35,4.76v15.35h-5.6V300.34a3.93,3.93,0,0,0-.53-2.21,1.67,1.67,0,0,0-1.48-.78,2.07,2.07,0,0,0-1.83.91A4.81,4.81,0,0,0,311,301v14.29h-5.61V300.38a4,4,0,0,0-.52-2.24,1.67,1.67,0,0,0-1.48-.79,2,2,0,0,0-2,1.1,8.67,8.67,0,0,0-.47,3.81v13h-5.6V294Z" transform="translate(-74.18 -265.03)" fill="#fff"/><path d="M325.36,285H331v5.06h-5.62V285Zm0,9H331v21.24h-5.6V294Z" transform="translate(-74.18 -265.03)" fill="#fff"/><path d="M349.84,307.3v1.25q0.06,3.59-1.77,5.37t-5.56,1.78q-3.89,0-5.61-1.9t-1.72-6.18v-6q0-4.28,1.72-6.18t5.61-1.9q3.88,0,5.62,1.8t1.71,5.43v0.89h-5.56v-0.63a6.35,6.35,0,0,0-.34-2.81,1.42,1.42,0,0,0-1.37-.93,1.46,1.46,0,0,0-1.44.84,8,8,0,0,0-.4,3.07v6a13.32,13.32,0,0,0,.35,3.85,1.37,1.37,0,0,0,1.42.93,1.5,1.5,0,0,0,1.45-.79,5.56,5.56,0,0,0,.32-2.63V307.3h5.56Z" transform="translate(-74.18 -265.03)" fill="#fff"/><path d="M358.25,315.72a4.89,4.89,0,0,1-3.79-1.49,5.86,5.86,0,0,1-1.37-4.13v-1.3q0-3.78,1.86-5.33t6.42-1.55h1.71v-2.6a3,3,0,0,0-.44-1.79,1.55,1.55,0,0,0-1.33-.61,2,2,0,0,0-1.62.65,2.84,2.84,0,0,0-.46,1.95v0.63h-5.6v-0.63a5.31,5.31,0,0,1,1.76-4.52q1.8-1.43,5.76-1.43t5.68,1.59a6.14,6.14,0,0,1,1.85,4.92v15.18h-5.43v-1.75l-0.24.28A5.79,5.79,0,0,1,358.25,315.72Zm4.82-10.49h-0.74a3.84,3.84,0,0,0-2.81.84,4.13,4.13,0,0,0-.82,2.92v1.3a2.21,2.21,0,0,0,.52,1.56,1.85,1.85,0,0,0,1.43.56,2,2,0,0,0,1.81-1.07,6.6,6.6,0,0,0,.61-3.19v-2.92Z" transform="translate(-74.18 -265.03)" fill="#fff"/><path d="M373.59,284.75h5.6v30.51h-5.6V284.75Z" transform="translate(-74.18 -265.03)" fill="#fff"/><path d="M394.47,284.75h6.25v12.61h5.94V284.75h6.25v30.51h-6.25V301.9h-5.94v13.36h-6.25V284.75Z" transform="translate(-74.18 -265.03)" fill="#fff"/><path d="M424.95,315.72q-3.9,0-5.62-1.95t-1.73-6.36v-4.2q0-5.3,1.76-7.47t6.07-2.17q4.54,0,6.18,1.88t1.64,7.09v3.09h-10.1v0.65a17.1,17.1,0,0,0,.44,4.89,1.77,1.77,0,0,0,1.83,1.19,2,2,0,0,0,1.84-.86,5.34,5.34,0,0,0,.43-2.84V308h5.56v0.63a6.37,6.37,0,0,1-2,5.29Q429.16,315.72,424.95,315.72Zm2.75-13.32V301.2a8.12,8.12,0,0,0-.47-3.38,1.84,1.84,0,0,0-1.8-.9,1.78,1.78,0,0,0-1.8,1.08,11.69,11.69,0,0,0-.47,4.09v0.3h4.54Z" transform="translate(-74.18 -265.03)" fill="#fff"/><path d="M437.25,294h5.34v2.75a8.25,8.25,0,0,1,.65-1.06c1-1.27,2.68-2,5.06-2.12v4.76a5.37,5.37,0,0,0-1.21-.09,4.11,4.11,0,0,0-3.37,1.19c-0.64.79-.92,2.16-0.87,4.11v11.7h-5.6V294Z" transform="translate(-74.18 -265.03)" fill="#fff"/><path d="M451.94,285h5.62v5.06h-5.62V285Zm0,9h5.6v21.24H452V294Z" transform="translate(-74.18 -265.03)" fill="#fff"/><path d="M473,315.46a24.33,24.33,0,0,1-3.74.26,5,5,0,0,1-4-1.58,7.13,7.13,0,0,1-1.34-4.71V297.79h-3V294h3v-3.39l5.6-2.32V294H473v3.76h-3.48v11.65a4.08,4.08,0,0,0,.32,2,1.63,1.63,0,0,0,1.41.48,13.69,13.69,0,0,0,1.75-.15v3.68Z" transform="translate(-74.18 -265.03)" fill="#fff"/><path d="M480.74,315.72a4.91,4.91,0,0,1-3.8-1.49,5.88,5.88,0,0,1-1.37-4.13v-1.3q0-3.78,1.86-5.33t6.42-1.55h1.71v-2.6a3,3,0,0,0-.45-1.79,1.53,1.53,0,0,0-1.33-.61,2,2,0,0,0-1.63.65,2.85,2.85,0,0,0-.45,1.95v0.63h-5.6v-0.63a5.3,5.3,0,0,1,1.76-4.52q1.81-1.43,5.76-1.43t5.68,1.59a6.14,6.14,0,0,1,1.85,4.92v15.18h-5.43v-1.75l-0.24.28A5.79,5.79,0,0,1,480.74,315.72Zm4.82-10.49h-0.74a3.84,3.84,0,0,0-2.81.84,4.13,4.13,0,0,0-.82,2.92v1.3a2.21,2.21,0,0,0,.52,1.56,1.83,1.83,0,0,0,1.42.56,2,2,0,0,0,1.82-1.07,6.65,6.65,0,0,0,.61-3.19v-2.92Z" transform="translate(-74.18 -265.03)" fill="#fff"/><path d="M503.13,320.43a1.75,1.75,0,0,0,1.64-.81,5.85,5.85,0,0,0,.47-2.77v-4l-0.21.28a5.18,5.18,0,0,1-4.41,2.12,4.38,4.38,0,0,1-4-1.73q-1.15-1.73-1.15-6v-5.84a11.37,11.37,0,0,1,1.32-6.12,4.43,4.43,0,0,1,4-2,5.67,5.67,0,0,1,4.6,2.34l0.17,0.21V294h5.52v22.82a6.42,6.42,0,0,1-2,5.1q-2,1.7-5.85,1.71-4.09,0-5.88-1.38t-1.75-4.5v-0.63h5.62v0.63a3.22,3.22,0,0,0,.4,2A1.62,1.62,0,0,0,503.13,320.43Zm0.07-23.05a1.63,1.63,0,0,0-1.54.91,6,6,0,0,0-.5,2.79v5.84a10.65,10.65,0,0,0,.4,3.66,2,2,0,0,0,3.29,0,11.11,11.11,0,0,0,.4-3.74V302a11.12,11.12,0,0,0-.4-3.74A1.61,1.61,0,0,0,503.19,297.38Z" transform="translate(-74.18 -265.03)" fill="#fff"/><path d="M522.11,315.72q-3.89,0-5.62-1.95t-1.73-6.36v-4.2q0-5.3,1.76-7.47c1.18-1.45,3.2-2.17,6.07-2.17q4.54,0,6.18,1.88t1.64,7.09v3.09h-10.1v0.65a17.09,17.09,0,0,0,.44,4.89,1.77,1.77,0,0,0,1.83,1.19,2,2,0,0,0,1.84-.86,5.3,5.3,0,0,0,.43-2.84V308h5.56v0.63a6.37,6.37,0,0,1-2,5.29Q526.33,315.72,522.11,315.72Zm2.75-13.32V301.2a8.16,8.16,0,0,0-.47-3.38,1.85,1.85,0,0,0-1.8-.9,1.78,1.78,0,0,0-1.8,1.08,11.71,11.71,0,0,0-.47,4.09v0.3h4.54Z" transform="translate(-74.18 -265.03)" fill="#fff"/><path d="M544.58,315.26V284.75H559.2v4.54h-8.37v8.3h7.92v4.54h-7.92v13.13h-6.25Z" transform="translate(-74.18 -265.03)" fill="#fff"/><path d="M565.12,313.81q-1.83-1.9-1.83-6.18v-6q0-4.28,1.83-6.18t6-1.9q4.13,0,6,1.9t1.84,6.18v6q0,4.28-1.84,6.18t-6,1.9Q566.94,315.72,565.12,313.81Zm7.76-2.46a12.4,12.4,0,0,0,.45-4.17v-6a7.76,7.76,0,0,0-.51-3.32,1.81,1.81,0,0,0-1.74-1,1.78,1.78,0,0,0-1.73,1,7.87,7.87,0,0,0-.5,3.32v6a12.79,12.79,0,0,0,.43,4.17A2.1,2.1,0,0,0,572.88,311.35Z" transform="translate(-74.18 -265.03)" fill="#fff"/><path d="M588.85,308.9a4.29,4.29,0,0,0,.47,2.31,1.71,1.71,0,0,0,1.54.71,2,2,0,0,0,2-1.1,8.68,8.68,0,0,0,.46-3.81V294h5.6v21.24h-5.25v-2.1a6.76,6.76,0,0,1-5.15,2.55,4.9,4.9,0,0,1-3.95-1.54,7,7,0,0,1-1.31-4.61V294h5.6V308.9Z" transform="translate(-74.18 -265.03)" fill="#fff"/><path d="M603.73,294h5.6v2a6.11,6.11,0,0,1,5.21-2.44,4.45,4.45,0,0,1,3.59,1.4,6.36,6.36,0,0,1,1.19,4.2v16.09h-5.61V299.82a3.05,3.05,0,0,0-.46-1.88,1.82,1.82,0,0,0-1.5-.58,2,2,0,0,0-2,1.1,8.69,8.69,0,0,0-.47,3.81v13h-5.6V294Z" transform="translate(-74.18 -265.03)" fill="#fff"/><path d="M629.14,315.72a4.74,4.74,0,0,1-4.14-1.77q-1.26-1.77-1.27-5.75v-7.53a8.73,8.73,0,0,1,1.35-5.32,4.79,4.79,0,0,1,4.06-1.77,6.69,6.69,0,0,1,4.58,2V284.75h5.61v30.51h-5.24v-2.31l-0.24.37A5.26,5.26,0,0,1,629.14,315.72Zm2.4-18.34a1.76,1.76,0,0,0-1.73.88,8.07,8.07,0,0,0-.46,3.3v6.21a7.42,7.42,0,0,0,.5,3.2,1.94,1.94,0,0,0,3.44-.18,16,16,0,0,0,.43-4.68v-2.9a16.46,16.46,0,0,0-.42-4.68A1.69,1.69,0,0,0,631.54,297.38Z" transform="translate(-74.18 -265.03)" fill="#fff"/><path d="M648.11,315.72a4.89,4.89,0,0,1-3.79-1.49,5.86,5.86,0,0,1-1.38-4.13v-1.3q0-3.78,1.86-5.33t6.43-1.55h1.71v-2.6a3,3,0,0,0-.45-1.79,1.53,1.53,0,0,0-1.33-.61,2,2,0,0,0-1.62.65,2.82,2.82,0,0,0-.45,1.95v0.63h-5.6v-0.63a5.3,5.3,0,0,1,1.76-4.52q1.81-1.43,5.76-1.43t5.68,1.59a6.16,6.16,0,0,1,1.85,4.92v15.18h-5.43v-1.75l-0.24.28A5.8,5.8,0,0,1,648.11,315.72Zm4.82-10.49H652.2a3.84,3.84,0,0,0-2.81.84,4.13,4.13,0,0,0-.82,2.92v1.3a2.19,2.19,0,0,0,.52,1.56,1.83,1.83,0,0,0,1.42.56,2,2,0,0,0,1.82-1.07,6.68,6.68,0,0,0,.6-3.19v-2.92Z" transform="translate(-74.18 -265.03)" fill="#fff"/><path d="M673.85,315.46a24.33,24.33,0,0,1-3.74.26,5,5,0,0,1-4-1.58,7.13,7.13,0,0,1-1.34-4.71V297.79h-3V294h3v-3.39l5.6-2.32V294h3.48v3.76h-3.48v11.65a4.11,4.11,0,0,0,.32,2,1.63,1.63,0,0,0,1.41.48,13.71,13.71,0,0,0,1.75-.15v3.68Z" transform="translate(-74.18 -265.03)" fill="#fff"/><path d="M677.28,285h5.62v5.06h-5.62V285Zm0,9h5.6v21.24h-5.6V294Z" transform="translate(-74.18 -265.03)" fill="#fff"/><path d="M689.23,313.81q-1.83-1.9-1.83-6.18v-6q0-4.28,1.83-6.18t6-1.9q4.12,0,6,1.9t1.84,6.18v6q0,4.28-1.84,6.18t-6,1.9Q691.06,315.72,689.23,313.81Zm7.77-2.46a12.58,12.58,0,0,0,.44-4.17v-6a7.68,7.68,0,0,0-.51-3.32,1.81,1.81,0,0,0-1.74-1,1.78,1.78,0,0,0-1.73,1,7.87,7.87,0,0,0-.5,3.32v6a12.77,12.77,0,0,0,.43,4.17,1.75,1.75,0,0,0,1.8,1A1.77,1.77,0,0,0,697,311.35Z" transform="translate(-74.18 -265.03)" fill="#fff"/><path d="M707.43,294H713v2a6.1,6.1,0,0,1,5.21-2.44,4.45,4.45,0,0,1,3.59,1.4,6.33,6.33,0,0,1,1.19,4.2v16.09h-5.6V299.82a3,3,0,0,0-.47-1.88,1.82,1.82,0,0,0-1.51-.58,2,2,0,0,0-2,1.1,8.66,8.66,0,0,0-.47,3.81v13h-5.6V294Z" transform="translate(-74.18 -265.03)" fill="#fff"/><path d="M87.61,335.61L74.18,312.34l13.43-23.26h26.86l13.43,23.26-13.43,23.26H87.61Zm22.62-37a1.92,1.92,0,0,1-1.26.59,9.68,9.68,0,0,1-1.63-.29,12.29,12.29,0,0,0-2.63-.3c-7.92,0-14.06,5.73-14.06,13.76s6.14,13.76,14.06,13.76a25.93,25.93,0,0,0,4.25-.59,2.15,2.15,0,0,1,.66.15,1.35,1.35,0,0,1,.59.45v-7a6.67,6.67,0,0,1-5.51,2.3,9,9,0,1,1,0-18.05,6.69,6.69,0,0,1,5.51,2.29v-7Z" transform="translate(-74.18 -265.03)" fill="#fff"/><path d="M139.33,286.17v-9.4a1.76,1.76,0,0,1,.93-1.48h-6.73a1.76,1.76,0,0,1,.92,1.48v23.38a1.77,1.77,0,0,1-.92,1.48h6.73a1.77,1.77,0,0,1-.93-1.48v-9.62h8.29v9.62a1.77,1.77,0,0,1-.93,1.48h6.73a1.77,1.77,0,0,1-.93-1.48V276.77a1.77,1.77,0,0,1,.93-1.48h-6.73a1.76,1.76,0,0,1,.93,1.48v9.4h-8.29Zm-9.83,25.38-13.43-23.26L129.51,265h26.87l13.43,23.26-13.43,23.26H129.51Z" transform="translate(-74.18 -265.03)" fill="#fff"/><path d="M171.36,335.62l-13.43-23.26,13.43-23.26h26.86l13.43,23.26-13.43,23.26H171.36ZM178.92,324a1.76,1.76,0,0,1-.92,1.48h6.73a1.76,1.76,0,0,1-.92-1.48V314.4h4.26a3,3,0,0,1,2.26.81v-6a3,3,0,0,1-2.26.82H183.8v-6.51h6.81a2.81,2.81,0,0,1,2.55,1.18v-5.55H178a1.76,1.76,0,0,1,.92,1.48V324Z" transform="translate(-74.18 -265.03)" fill="#fff"/></svg>