<svg xmlns="http://www.w3.org/2000/svg" xmlns:xlink="http://www.w3.org/1999/xlink" version="1.1" id="Layer_1" x="0px" y="0px" viewBox="0 0 358 339" xml:space="preserve" enable-background="new 0 0 358 339"><style type="text/css">
	.st0{fill:#FFFFFF;}
</style><path class="st0" d="M289.4 177l-80.8-6.1c0-0.4 0.1-0.7 0.1-1.1 0-0.4 0-0.8-0.1-1.1l80.8-6.1c0.6 0 1-0.5 1-1.1 0 0 0-0.1 0-0.1 0-0.6-0.6-1.1-1.2-1l-80.8 6.1c-0.1-0.8-0.2-1.5-0.3-2.2l79-18c0.5-0.1 0.9-0.6 0.9-1.1 0-0.1 0-0.2 0-0.3 -0.1-0.6-0.7-1-1.4-0.8l-79 18c-0.2-0.7-0.4-1.5-0.7-2.2l75.4-29.6c0.4-0.2 0.7-0.6 0.7-1.1 0-0.1 0-0.3-0.1-0.4 -0.2-0.6-0.9-0.9-1.5-0.6l-75.4 29.6c-0.3-0.7-0.6-1.4-1-2l70.1-40.5c0.4-0.2 0.6-0.6 0.6-1 0-0.2 0-0.4-0.2-0.6 -0.3-0.5-1-0.7-1.5-0.4L204 153.7c-0.4-0.6-0.8-1.3-1.3-1.9l63.3-50.5c0.3-0.2 0.4-0.6 0.4-0.9 0-0.2-0.1-0.5-0.2-0.7 -0.4-0.5-1.1-0.6-1.6-0.2l-63.3 50.5c-0.5-0.6-1-1.1-1.5-1.7L254.8 89c0.2-0.2 0.3-0.5 0.3-0.8 0-0.3-0.1-0.6-0.4-0.8 -0.5-0.4-1.2-0.4-1.6 0.1l-55.1 59.4c-0.6-0.5-1.2-1-1.8-1.4l45.6-66.9c0.1-0.2 0.2-0.4 0.2-0.6 0-0.4-0.2-0.7-0.5-0.9 -0.5-0.3-1.2-0.2-1.6 0.3l-45.6 66.9c-0.6-0.4-1.3-0.8-2-1.2l35.1-73c0.1-0.2 0.1-0.3 0.1-0.5 0-0.4-0.2-0.8-0.6-1 -0.6-0.3-1.2 0-1.5 0.5l-35.1 73c-0.7-0.3-1.4-0.6-2.1-0.8l23.9-77.4c0-0.1 0.1-0.2 0.1-0.3 0-0.5-0.3-0.9-0.8-1.1 -0.6-0.2-1.2 0.1-1.4 0.7l-23.9 77.4c-0.7-0.2-1.5-0.4-2.2-0.5L196 60c0-0.1 0-0.1 0-0.2 0-0.5-0.4-1-1-1.1 -0.6-0.1-1.2 0.3-1.3 0.9l-12.1 80.1c-0.7-0.1-1.5-0.1-2.3-0.1v-81c0-0.6-0.5-1.1-1.1-1.1 -0.6 0-1.1 0.5-1.1 1.1v81c-0.8 0-1.5 0.1-2.3 0.1l-12.1-80.1c-0.1-0.6-0.7-1-1.3-0.9 -0.6 0.1-1 0.6-1 1.1 0 0.1 0 0.1 0 0.2l12.1 80.1c-0.7 0.1-1.5 0.3-2.2 0.5l-23.9-77.4c-0.2-0.6-0.8-0.9-1.4-0.7 -0.5 0.2-0.8 0.6-0.8 1.1 0 0.1 0 0.2 0.1 0.3l23.9 77.4c-0.7 0.3-1.4 0.5-2.1 0.8l-35.1-73c-0.3-0.6-1-0.8-1.5-0.5 -0.4 0.2-0.6 0.6-0.6 1 0 0.2 0 0.3 0.1 0.5l35.1 73c-0.7 0.4-1.3 0.7-2 1.2l-45.6-66.9c-0.4-0.5-1.1-0.6-1.6-0.3 -0.3 0.2-0.5 0.6-0.5 0.9 0 0.2 0.1 0.4 0.2 0.6l45.6 66.9c-0.6 0.5-1.2 0.9-1.8 1.4l-55.1-59.4c-0.4-0.5-1.1-0.5-1.6-0.1 -0.2 0.2-0.4 0.5-0.4 0.8 0 0.3 0.1 0.5 0.3 0.8l55.1 59.4c-0.5 0.5-1 1.1-1.5 1.7L92.1 99.6c-0.5-0.4-1.2-0.3-1.6 0.2 -0.2 0.2-0.2 0.5-0.2 0.7 0 0.3 0.1 0.7 0.4 0.9l63.3 50.5c-0.4 0.6-0.9 1.2-1.3 1.9l-70.1-40.5c-0.5-0.3-1.2-0.1-1.5 0.4 -0.1 0.2-0.2 0.4-0.2 0.6 0 0.4 0.2 0.8 0.6 1l70.1 40.5c-0.4 0.7-0.7 1.3-1 2l-75.4-29.6c-0.6-0.2-1.2 0.1-1.5 0.6 -0.1 0.1-0.1 0.3-0.1 0.4 0 0.5 0.3 0.9 0.7 1.1l75.4 29.6c-0.2 0.7-0.5 1.4-0.7 2.2l-79-18c-0.6-0.1-1.2 0.2-1.4 0.8 0 0.1 0 0.2 0 0.3 0 0.5 0.4 1 0.9 1.1l79 18c-0.1 0.7-0.3 1.5-0.3 2.2l-80.8-6.1c-0.6-0.1-1.2 0.4-1.2 1 0 0 0 0.1 0 0.1 0 0.6 0.5 1.1 1 1.1l80.8 6.1c0 0.4-0.1 0.8-0.1 1.1 0 0.4 0 0.8 0.1 1.1L67.3 177c-0.6 0-1 0.5-1 1.1 0 0 0 0.1 0 0.1 0 0.6 0.6 1.1 1.2 1l80.8-6.1c0.1 0.8 0.2 1.5 0.3 2.2l-79 18c-0.5 0.1-0.9 0.6-0.9 1.1 0 0.1 0 0.2 0 0.3 0.1 0.6 0.7 1 1.4 0.8l79-18c0.2 0.7 0.4 1.5 0.7 2.2l-75.4 29.6c-0.4 0.2-0.7 0.6-0.7 1.1 0 0.1 0 0.3 0.1 0.4 0.2 0.6 0.9 0.9 1.5 0.6l75.4-29.6c0.3 0.7 0.6 1.4 1 2l-70.1 40.5c-0.4 0.2-0.6 0.6-0.6 1 0 0.2 0 0.4 0.2 0.6 0.3 0.5 1 0.7 1.5 0.4l70.1-40.5c0.4 0.6 0.8 1.3 1.3 1.9l-63.3 50.5c-0.3 0.2-0.4 0.6-0.4 0.9 0 0.2 0.1 0.5 0.2 0.7 0.4 0.5 1.1 0.6 1.6 0.2l63.3-50.5c0.5 0.6 1 1.1 1.5 1.7l-55.1 59.4c-0.2 0.2-0.3 0.5-0.3 0.8 0 0.3 0.1 0.6 0.4 0.8 0.5 0.4 1.2 0.4 1.6-0.1l55.1-59.4c0.6 0.5 1.2 1 1.8 1.4l-45.6 66.9c-0.1 0.2-0.2 0.4-0.2 0.6 0 0.4 0.2 0.7 0.5 0.9 0.5 0.4 1.2 0.2 1.6-0.3l45.6-66.9c0.6 0.4 1.3 0.8 2 1.2l-35.1 73c-0.1 0.2-0.1 0.3-0.1 0.5 0 0.4 0.2 0.8 0.6 1 0.6 0.3 1.2 0 1.5-0.5l35.1-73c0.7 0.3 1.4 0.6 2.1 0.8l-23.9 77.4c0 0.1-0.1 0.2-0.1 0.3 0 0.5 0.3 0.9 0.8 1.1 0.6 0.2 1.2-0.2 1.4-0.7l23.9-77.4c0.7 0.2 1.5 0.4 2.2 0.5l-12.1 80.1c0 0.1 0 0.1 0 0.2 0 0.5 0.4 1 1 1.1 0.6 0.1 1.2-0.3 1.3-0.9l12.1-80.1c0.7 0.1 1.5 0.1 2.3 0.1v81c0 0.6 0.5 1.1 1.1 1.1 0.6 0 1.1-0.5 1.1-1.1v-81c0.8 0 1.5-0.1 2.3-0.1l12.1 80.1c0.1 0.6 0.7 1.1 1.3 0.9 0.6-0.1 1-0.6 1-1.1 0-0.1 0-0.1 0-0.2L184 199.6c0.7-0.1 1.5-0.3 2.2-0.5l23.9 77.4c0.2 0.6 0.8 0.9 1.4 0.7 0.5-0.2 0.8-0.6 0.8-1.1 0-0.1 0-0.2-0.1-0.3l-23.9-77.4c0.7-0.3 1.4-0.5 2.1-0.8l35.1 73c0.3 0.6 1 0.8 1.5 0.5 0.4-0.2 0.6-0.6 0.6-1 0-0.2 0-0.3-0.1-0.5l-35.1-73c0.7-0.4 1.3-0.7 2-1.2l45.6 66.9c0.4 0.5 1.1 0.6 1.6 0.3 0.3-0.2 0.5-0.6 0.5-0.9 0-0.2-0.1-0.4-0.2-0.6l-45.6-66.9c0.6-0.5 1.2-0.9 1.8-1.4l55.1 59.4c0.4 0.5 1.1 0.5 1.6 0.1 0.2-0.2 0.4-0.5 0.4-0.8 0-0.3-0.1-0.5-0.3-0.8l-55.1-59.4c0.5-0.5 1-1.1 1.5-1.7l63.3 50.5c0.5 0.4 1.2 0.3 1.6-0.2 0.2-0.2 0.2-0.5 0.2-0.7 0-0.3-0.1-0.7-0.4-0.9l-63.3-50.5c0.4-0.6 0.9-1.2 1.3-1.9l70.1 40.5c0.5 0.3 1.2 0.1 1.5-0.4 0.1-0.2 0.2-0.4 0.2-0.6 0-0.4-0.2-0.8-0.6-1L205.1 184c0.4-0.7 0.7-1.3 1-2l75.4 29.6c0.6 0.2 1.2-0.1 1.5-0.6 0.1-0.1 0.1-0.3 0.1-0.4 0-0.5-0.3-0.9-0.7-1.1l-75.4-29.6c0.2-0.7 0.5-1.4 0.7-2.2l79 18c0.6 0.1 1.2-0.2 1.4-0.8 0-0.1 0-0.2 0-0.3 0-0.5-0.4-1-0.9-1.1l-79-18c0.1-0.7 0.3-1.5 0.3-2.2l80.8 6.1c0.6 0 1.2-0.4 1.2-1 0 0 0-0.1 0-0.1C290.4 177.6 290 177.1 289.4 177zM206.2 173c-0.1 0.6-0.2 1.3-0.3 1.9 -0.1 0.7-0.3 1.5-0.5 2.2 -0.2 0.6-0.4 1.2-0.6 1.8 -0.2 0.7-0.5 1.4-0.8 2.1 -0.3 0.6-0.5 1.2-0.8 1.7 -0.4 0.7-0.7 1.3-1.1 1.9 -0.3 0.5-0.7 1.1-1.1 1.6 -0.4 0.6-0.9 1.2-1.4 1.8 -0.4 0.5-0.8 1-1.3 1.4 -0.5 0.5-1.1 1-1.7 1.5 -0.5 0.4-1 0.8-1.5 1.2 -0.6 0.5-1.2 0.9-1.9 1.3 -0.5 0.3-1.1 0.7-1.7 1 -0.7 0.4-1.3 0.7-2 1 -0.6 0.3-1.2 0.5-1.8 0.7 -0.7 0.3-1.4 0.5-2.2 0.7 -0.6 0.2-1.2 0.3-1.9 0.4 -0.7 0.1-1.5 0.3-2.2 0.3 -0.6 0.1-1.3 0.1-1.9 0.1 -0.4 0-0.7 0.1-1.1 0.1 -0.4 0-0.8 0-1.1-0.1 -0.6 0-1.3 0-1.9-0.1 -0.8-0.1-1.5-0.2-2.2-0.3 -0.6-0.1-1.3-0.3-1.9-0.4 -0.7-0.2-1.5-0.4-2.2-0.7 -0.6-0.2-1.2-0.4-1.8-0.7 -0.7-0.3-1.4-0.6-2-1 -0.6-0.3-1.1-0.6-1.7-1 -0.6-0.4-1.3-0.8-1.9-1.3 -0.5-0.4-1-0.8-1.5-1.2 -0.6-0.5-1.1-1-1.7-1.5 -0.5-0.5-0.9-0.9-1.3-1.4 -0.5-0.6-1-1.2-1.4-1.8 -0.4-0.5-0.7-1-1.1-1.6 -0.4-0.6-0.8-1.3-1.1-1.9 -0.3-0.6-0.6-1.1-0.8-1.7 -0.3-0.7-0.6-1.4-0.8-2.1 -0.2-0.6-0.4-1.2-0.6-1.8 -0.2-0.7-0.4-1.5-0.5-2.2 -0.1-0.6-0.2-1.3-0.3-1.9 -0.1-0.7-0.1-1.5-0.2-2.3 0-0.3 0-0.6 0-1 0-0.3 0-0.6 0-1 0-0.8 0.1-1.5 0.2-2.3 0.1-0.6 0.2-1.3 0.3-1.9 0.1-0.7 0.3-1.5 0.5-2.2 0.2-0.6 0.4-1.2 0.6-1.8 0.2-0.7 0.5-1.4 0.8-2.1 0.3-0.6 0.5-1.2 0.8-1.7 0.4-0.7 0.7-1.3 1.1-1.9 0.3-0.5 0.7-1.1 1.1-1.6 0.4-0.6 0.9-1.2 1.4-1.8 0.4-0.5 0.8-1 1.3-1.4 0.5-0.5 1.1-1 1.7-1.5 0.5-0.4 1-0.8 1.5-1.2 0.6-0.4 1.2-0.9 1.9-1.3 0.5-0.3 1.1-0.7 1.7-1 0.7-0.4 1.3-0.7 2-1 0.6-0.3 1.2-0.5 1.8-0.7 0.7-0.3 1.4-0.5 2.2-0.7 0.6-0.2 1.2-0.3 1.9-0.4 0.7-0.1 1.5-0.3 2.2-0.3 0.6-0.1 1.3-0.1 1.9-0.1 0.4 0 0.7-0.1 1.1-0.1 0.4 0 0.8 0 1.1 0.1 0.6 0 1.3 0 1.9 0.1 0.8 0.1 1.5 0.2 2.2 0.3 0.6 0.1 1.3 0.3 1.9 0.4 0.7 0.2 1.5 0.4 2.2 0.7 0.6 0.2 1.2 0.4 1.8 0.7 0.7 0.3 1.4 0.6 2 1 0.6 0.3 1.1 0.6 1.7 1 0.6 0.4 1.3 0.8 1.9 1.3 0.5 0.4 1 0.8 1.5 1.2 0.6 0.5 1.1 1 1.7 1.5 0.5 0.5 0.9 0.9 1.3 1.4 0.5 0.6 1 1.2 1.4 1.8 0.4 0.5 0.7 1 1.1 1.6 0.4 0.6 0.8 1.3 1.1 1.9 0.3 0.6 0.6 1.1 0.8 1.7 0.3 0.7 0.6 1.4 0.8 2.1 0.2 0.6 0.4 1.2 0.6 1.8 0.2 0.7 0.4 1.5 0.5 2.2 0.1 0.6 0.2 1.3 0.3 1.9 0.1 0.7 0.1 1.5 0.2 2.3 0 0.3 0 0.6 0 1 0 0.3 0 0.6 0 1C206.3 171.5 206.3 172.3 206.2 173zM178.3 159.7c-5.6 0-10.2 4.6-10.2 10.2 0 5.6 4.6 10.2 10.2 10.2 5.6 0 10.2-4.6 10.2-10.2C188.5 164.2 184 159.7 178.3 159.7z"/></svg>