<?xml version="1.0" encoding="utf-8"?>
<!-- Generator: Adobe Illustrator 22.0.1, SVG Export Plug-In . SVG Version: 6.00 Build 0)  -->
<svg version="1.1" id="Layer_1" xmlns="http://www.w3.org/2000/svg" xmlns:xlink="http://www.w3.org/1999/xlink" x="0px" y="0px"
	 viewBox="0 0 647 432" style="enable-background:new 0 0 647 432;" xml:space="preserve">
<style type="text/css">
	.st0{fill:#FFFFFF;}
</style>
<path class="st0" d="M71.8,339.7c0,5.7,2.1,9.1,6.3,9.1c3.1,0,4.8-1.4,5.6-5.1h1l-0.2,6.2h-1c-0.2-0.4-0.3-0.7-0.8-0.7
	c-0.6,0-2.4,1-5,1c-5.7,0-9.4-3.1-9.4-10.5c0-6.9,4.2-10.5,9.5-10.5c2.3,0,4,0.9,4.7,0.9c0.4,0,0.6-0.2,0.8-0.6h0.9l0.2,6.1h-1
	c-0.8-3.7-2.5-4.9-5.5-4.9C74,330.7,71.8,333.5,71.8,339.7z M91.7,328.2v8.1l-0.1,1.8h0.1c0.8-1.5,2.4-2.9,4.9-2.9
	c3.1,0,4.4,1.5,4.4,4.9v8.5l1.9,0.2v1.2h-6.6v-1.2l1.9-0.2v-8.4c0-1.9-0.4-3-2.7-3c-2.1,0-3.9,1.3-3.9,4v7.5l2,0.2v1.2h-6.8v-1.2
	l2.1-0.2v-18.9l-2.1-0.2v-1.1L91.7,328.2z M111.7,335.2c3.5,0,5.6,2,5.6,6.3c0,0.4,0,0.8-0.1,1.2H108c0,3.6,1,5.8,4,5.8
	c2,0,3.1-0.8,3.8-2.5l1.3,0.4c-0.8,2.3-2.6,3.8-5.6,3.8c-4.4,0-6.5-3-6.5-7.4C104.9,338,107.9,335.2,111.7,335.2z M114.5,341.2v-0.6
	c0-2.6-0.9-4-2.9-4c-2.3,0-3.4,2.1-3.6,4.7H114.5z M123.5,335.4l0.1,2.7h0.1c0.8-1.4,2.2-2.9,4.9-2.9c2.2,0,3.5,0.9,3.9,2.9
	c0.8-1.4,2.3-2.9,4.8-2.9c3.1,0,4.3,1.5,4.3,4.9v8.5l1.9,0.2v1.2h-6.6v-1.2l1.9-0.2v-8.4c0-1.9-0.3-3-2.5-3c-1.8,0-3.6,1.3-3.6,4
	v7.4l1.9,0.2v1.2h-6.6v-1.2l1.9-0.2v-8.4c0-1.9-0.3-3-2.5-3c-1.9,0-3.6,1.3-3.6,3.8v7.7l2,0.2v1.2h-6.6v-1.2l1.9-0.2v-11.7l-1.9-0.2
	v-1.1L123.5,335.4z M150.3,335.4v13.2l2.2,0.2v1.2h-7.2v-1.2l2.2-0.2v-11.7l-2.2-0.2v-1.1L150.3,335.4z M148.6,328.8
	c1,0,1.8,0.5,1.8,1.8c0,1.1-0.6,1.8-1.8,1.8c-1.4,0-1.8-0.8-1.8-1.7C146.8,329.6,147.3,328.8,148.6,328.8z M154.7,345.1h1.1
	c0.2,2.6,2.3,3.8,4.4,3.8c1.8,0,2.9-0.9,2.9-2.5c0-2-1.7-2.3-3.6-2.7c-2.2-0.4-4.5-0.9-4.5-4c0-2.5,2.1-4.4,4.7-4.4
	c1.1,0,2.1,0.3,2.8,0.7c0.2,0.1,0.4,0.2,0.5,0.2c0.3,0,0.5-0.3,0.5-0.8h1v4.5h-1.1c-0.6-2.2-1.7-3.2-3.7-3.2c-1.5,0-2.6,0.9-2.6,2.2
	c0,1.7,1.6,2,3.5,2.4c2.2,0.4,4.6,1,4.6,4.4c0,2.7-1.6,4.8-4.9,4.8c-1.7,0-2.8-0.5-3.8-1.1c-0.1-0.1-0.2-0.1-0.3-0.1
	c-0.2,0-0.4,0.2-0.5,1.2h-1V345.1z M169.1,337H167v-1.4h2.2v-3.8l2.1-0.6h0.7v4.3h3.2v1.4h-3.2v9.4c0,1.6,0.4,2.2,1.5,2.2
	c1.1,0,1.7-0.5,2.2-2.3l1.1,0.3c-0.6,2.5-1.7,3.7-4.2,3.7c-2.1,0-3.4-1-3.4-3.4V337z M185.8,348.8v1.2H178v-1.2l1.9-0.2v-11.7
	l-1.9-0.2v-1.1l4.2-0.2l0.2,2.5h0.1c0.8-1.5,2-2.7,4.2-2.7c1.6,0,3,1,3,2.7c0,1.6-0.8,2.3-2,2.3c-1.2,0-1.9-0.7-1.9-2l0.9-0.4
	c0-0.1,0.1-0.2,0.1-0.3c0-0.5-0.4-0.7-1-0.7c-1.5,0-3.1,2-3.1,3.7v8.1L185.8,348.8z M190.2,335.5h6.4v1.2l-2,0.1l3.4,9.9h0.1
	l3.3-9.9l-2-0.1v-1.2h5.2v1.2l-1.5,0.1l-5.6,15.4c-0.9,2.5-1.7,3.9-4.1,3.9c-1.8,0-3.3-0.9-3.3-2.8c0-1.1,0.7-2,1.9-2
	c0.9,0,1.6,0.6,1.7,1.9l-1.1,0.6c-0.1,0.7,0.4,1,1.2,1c1.2,0,1.5-0.8,2.6-3.8l0.3-0.8l-5.1-13.5l-1.3-0.1V335.5z M214.4,339.2
	c1.2,0,2.1,0.6,2.1,2.1c0,1.2-0.7,2.1-2.1,2.1c-1.6,0-2.1-1.1-2.1-2.1C212.4,340.1,213.1,339.2,214.4,339.2z M239.8,329.6l0.2,5.5
	h-1.1c-0.8-3.5-1.9-4.2-5.5-4.2h-2.6v8h1.5c2.4,0,3-0.9,3.4-3.5h0.9v8.6h-1c-0.5-3.1-1-3.7-3.7-3.7h-1.2v8.3h2.6
	c4.4,0,5.7-1.2,6.3-5.2h1.1l-0.2,6.5h-15.1v-1.1l2.3-0.2V331l-2.3-0.2v-1.1H239.8z M247.5,335.4l0.2,2.8h0.1
	c0.8-1.4,2.4-2.9,5.1-2.9c3.1,0,4.4,1.5,4.4,4.9v8.5l1.9,0.2v1.2h-6.6v-1.2l1.9-0.2v-8.4c0-1.9-0.4-3-2.7-3c-2.1,0-3.9,1.3-3.9,3.7
	v7.8l2,0.2v1.2h-6.6v-1.2l1.9-0.2v-11.7l-1.9-0.2v-1.1L247.5,335.4z M272.8,334.6c0.3,0,0.6,0.1,0.9,0.2v1.6l-2.7,0.4
	c0.8,0.8,1.5,1.9,1.5,3.5c0,3.3-2.4,5.2-5.4,5.2c-0.7,0-1.1-0.1-1.7-0.2c-0.9,0.8-1.4,1.3-1.4,1.7c0,0.6,0.4,0.6,1.2,0.6h2.7
	c3.3,0,5.8,0.5,5.8,3.8c0,2.9-1.8,4.6-7.4,4.6c-4.4,0-5.9-1.2-5.9-3.1c0-1.6,1-2.4,2-3c-0.7-0.3-1-0.9-1-1.6c0-1.3,1.2-2.1,2.6-3.3
	c-1.8-0.6-2.8-2.4-2.8-4.4c0-2.9,1.9-5.5,5.7-5.5c1.3,0,2.4,0.3,3.1,0.8C270.8,335.3,271.8,334.6,272.8,334.6z M263.5,350.4
	c-0.4,0.6-0.7,1.2-0.7,2c0,1.4,0.7,2.2,4.3,2.2c2.8,0,4.5-0.6,4.5-2.4c0-1.6-1.5-1.7-4.2-1.7H263.5z M267,344.2
	c1.5,0,2.7-0.9,2.7-3.9c0-2.8-1.1-3.8-2.7-3.8c-1.5,0-2.8,1-2.8,3.9C264.1,343.3,265.3,344.2,267,344.2z M280.4,335.4v13.2l2.2,0.2
	v1.2h-7.2v-1.2l2.2-0.2v-11.7l-2.2-0.2v-1.1L280.4,335.4z M278.7,328.8c1,0,1.8,0.5,1.8,1.8c0,1.1-0.6,1.8-1.8,1.8
	c-1.4,0-1.8-0.8-1.8-1.7C276.9,329.6,277.5,328.8,278.7,328.8z M288.6,335.4l0.2,2.8h0.1c0.8-1.4,2.4-2.9,5.1-2.9
	c3.1,0,4.4,1.5,4.4,4.9v8.5l1.9,0.2v1.2h-6.6v-1.2l1.9-0.2v-8.4c0-1.9-0.4-3-2.7-3c-2.1,0-3.9,1.3-3.9,3.7v7.8l2,0.2v1.2h-6.6v-1.2
	l1.9-0.2v-11.7l-1.9-0.2v-1.1L288.6,335.4z M309,335.2c3.5,0,5.6,2,5.6,6.3c0,0.4,0,0.8-0.1,1.2h-9.2c0,3.6,1,5.8,4,5.8
	c2,0,3.1-0.8,3.8-2.5l1.3,0.4c-0.8,2.3-2.6,3.8-5.6,3.8c-4.4,0-6.5-3-6.5-7.4C302.3,338,305.2,335.2,309,335.2z M311.8,341.2v-0.6
	c0-2.6-0.9-4-2.9-4c-2.3,0-3.4,2.1-3.6,4.7H311.8z M323.7,335.2c3.5,0,5.6,2,5.6,6.3c0,0.4,0,0.8-0.1,1.2H320c0,3.6,1,5.8,4,5.8
	c2,0,3.1-0.8,3.8-2.5l1.3,0.4c-0.8,2.3-2.6,3.8-5.6,3.8c-4.4,0-6.5-3-6.5-7.4C316.9,338,319.9,335.2,323.7,335.2z M326.5,341.2v-0.6
	c0-2.6-0.9-4-2.9-4c-2.3,0-3.4,2.1-3.6,4.7H326.5z M339.1,348.8v1.2h-7.8v-1.2l1.9-0.2v-11.7l-1.9-0.2v-1.1l4.2-0.2l0.2,2.5h0.1
	c0.8-1.5,2-2.7,4.2-2.7c1.6,0,3,1,3,2.7c0,1.6-0.8,2.3-2,2.3c-1.2,0-1.9-0.7-1.9-2l0.9-0.4c0-0.1,0.1-0.2,0.1-0.3
	c0-0.5-0.4-0.7-1-0.7c-1.5,0-3.1,2-3.1,3.7v8.1L339.1,348.8z M349.3,335.4v13.2l2.2,0.2v1.2h-7.2v-1.2l2.2-0.2v-11.7l-2.2-0.2v-1.1
	L349.3,335.4z M347.6,328.8c1,0,1.8,0.5,1.8,1.8c0,1.1-0.6,1.8-1.8,1.8c-1.4,0-1.8-0.8-1.8-1.7C345.8,329.6,346.4,328.8,347.6,328.8
	z M357.5,335.4l0.2,2.8h0.1c0.8-1.4,2.4-2.9,5.1-2.9c3.1,0,4.4,1.5,4.4,4.9v8.5l1.9,0.2v1.2h-6.6v-1.2l1.9-0.2v-8.4
	c0-1.9-0.4-3-2.7-3c-2.1,0-3.9,1.3-3.9,3.7v7.8l2,0.2v1.2h-6.6v-1.2l1.9-0.2v-11.7l-1.9-0.2v-1.1L357.5,335.4z M382.9,334.6
	c0.3,0,0.6,0.1,0.9,0.2v1.6l-2.7,0.4c0.8,0.8,1.5,1.9,1.5,3.5c0,3.3-2.4,5.2-5.4,5.2c-0.7,0-1.1-0.1-1.7-0.2
	c-0.9,0.8-1.4,1.3-1.4,1.7c0,0.6,0.4,0.6,1.2,0.6h2.7c3.3,0,5.8,0.5,5.8,3.8c0,2.9-1.8,4.6-7.4,4.6c-4.4,0-5.9-1.2-5.9-3.1
	c0-1.6,1-2.4,2-3c-0.7-0.3-1-0.9-1-1.6c0-1.3,1.2-2.1,2.6-3.3c-1.8-0.6-2.8-2.4-2.8-4.4c0-2.9,1.9-5.5,5.7-5.5
	c1.3,0,2.4,0.3,3.1,0.8C380.9,335.3,381.9,334.6,382.9,334.6z M373.6,350.4c-0.4,0.6-0.7,1.2-0.7,2c0,1.4,0.7,2.2,4.3,2.2
	c2.8,0,4.5-0.6,4.5-2.4c0-1.6-1.5-1.7-4.2-1.7H373.6z M377.1,344.2c1.5,0,2.7-0.9,2.7-3.9c0-2.8-1.1-3.8-2.7-3.8
	c-1.5,0-2.8,1-2.8,3.9C374.2,343.3,375.4,344.2,377.1,344.2z M394.4,339.2c1.2,0,2.1,0.6,2.1,2.1c0,1.2-0.7,2.1-2.1,2.1
	c-1.6,0-2.1-1.1-2.1-2.1C392.3,340.1,393,339.2,394.4,339.2z M413.8,329.6v1.1l-3.1,0.3v17.6h1.8c4.4,0,5.9-0.8,6.6-5.2h1l-0.3,6.5
	h-14.5v-1.1l2.3-0.2V331l-2.3-0.2v-1.2H413.8z M427.2,335.4v13.2l2.2,0.2v1.2h-7.2v-1.2l2.2-0.2v-11.7l-2.2-0.2v-1.1L427.2,335.4z
	 M425.5,328.8c1,0,1.8,0.5,1.8,1.8c0,1.1-0.6,1.8-1.8,1.8c-1.4,0-1.8-0.8-1.8-1.7C423.7,329.6,424.2,328.8,425.5,328.8z M439.8,337
	H436v11.7l3.5,0.2v1.2H431v-1.2l2.2-0.2V337h-2.3v-1.4h2.3v-1.4c0-4,1.8-6.7,5.6-6.7c2.2,0,3.6,1.1,3.6,2.8c0,1.2-0.6,2-1.8,2
	c-1.2,0-1.7-0.7-1.7-1.8l0.8-0.3c0.1-0.2,0.1-0.4,0.1-0.6c0-0.7-0.5-0.9-1.3-0.9c-2.3,0-2.6,2-2.6,4v2.9h3.8V337z M447.8,335.2
	c3.5,0,5.6,2,5.6,6.3c0,0.4,0,0.8-0.1,1.2h-9.2c0,3.6,1,5.8,4,5.8c2,0,3.1-0.8,3.8-2.5l1.3,0.4c-0.8,2.3-2.6,3.8-5.6,3.8
	c-4.4,0-6.5-3-6.5-7.4C441,338,443.9,335.2,447.8,335.2z M450.5,341.2v-0.6c0-2.6-0.9-4-2.9-4c-2.3,0-3.4,2.1-3.6,4.7H450.5z
	 M473.4,345c0-2.8-1.9-3.3-5.6-4.2c-3.4-0.9-5.5-1.9-5.5-5.6c0-2.9,1.9-5.9,6.2-5.9c2.3,0,3.4,0.9,4.1,0.9c0.4,0,0.6-0.2,0.8-0.6
	h0.9l0.2,5.9h-1.1c-0.9-3.6-2.4-4.8-4.9-4.8c-2.4,0-4,1.2-4,3.2c0,2.3,1.9,3.1,4.5,3.8c3.2,0.8,6.5,1.7,6.5,6.1
	c0,3.7-2.3,6.5-6.8,6.5c-2.7,0-3.8-0.8-4.7-0.8c-0.4,0-0.5,0.4-0.8,0.9h-0.9l-0.3-6.7h1.1c0.9,3.3,1.9,5.3,5.5,5.3
	C471.7,348.9,473.4,347.4,473.4,345z M481.1,342.6c0,3.8,1.1,6,4.1,6c2.1,0,3.1-1.4,3.6-2.6l1.3,0.4c-0.4,1.3-1.8,3.9-5.5,3.9
	c-4.3,0-6.5-2.8-6.5-7.1c0-5.2,2.9-8,7.1-8c2.9,0,5,1.6,5,3.9c0,1.7-1,2.4-2.1,2.4c-1,0-1.9-0.6-1.9-1.7c0-0.3,0.1-0.8,0.3-1.3h1
	c0.1-0.2,0.1-0.4,0.1-0.6c0-1-0.8-1.3-2.3-1.3C482.5,336.6,481.1,338.7,481.1,342.6z M497,335.4v13.2l2.2,0.2v1.2H492v-1.2l2.2-0.2
	v-11.7l-2.2-0.2v-1.1L497,335.4z M495.3,328.8c1,0,1.8,0.5,1.8,1.8c0,1.1-0.6,1.8-1.8,1.8c-1.4,0-1.8-0.8-1.8-1.7
	C493.5,329.6,494,328.8,495.3,328.8z M507.7,335.2c3.5,0,5.6,2,5.6,6.3c0,0.4,0,0.8-0.1,1.2H504c0,3.6,1,5.8,4,5.8
	c2,0,3.1-0.8,3.8-2.5l1.3,0.4c-0.8,2.3-2.6,3.8-5.6,3.8c-4.4,0-6.5-3-6.5-7.4C501,338,503.9,335.2,507.7,335.2z M510.5,341.2v-0.6
	c0-2.6-0.9-4-2.9-4c-2.3,0-3.4,2.1-3.6,4.7H510.5z M519.7,335.4l0.2,2.8h0.1c0.8-1.4,2.4-2.9,5.1-2.9c3.1,0,4.4,1.5,4.4,4.9v8.5
	l1.9,0.2v1.2h-6.6v-1.2l1.9-0.2v-8.4c0-1.9-0.4-3-2.7-3c-2.1,0-3.9,1.3-3.9,3.7v7.8l2,0.2v1.2h-6.6v-1.2l1.9-0.2v-11.7l-1.9-0.2
	v-1.1L519.7,335.4z M536.4,342.6c0,3.8,1.1,6,4.1,6c2.1,0,3.1-1.4,3.6-2.6l1.3,0.4c-0.4,1.3-1.8,3.9-5.5,3.9c-4.3,0-6.5-2.8-6.5-7.1
	c0-5.2,2.9-8,7.1-8c2.9,0,5,1.6,5,3.9c0,1.7-1,2.4-2.1,2.4c-1,0-1.9-0.6-1.9-1.7c0-0.3,0.1-0.8,0.3-1.3h1c0.1-0.2,0.1-0.4,0.1-0.6
	c0-1-0.8-1.3-2.3-1.3C537.8,336.6,536.4,338.7,536.4,342.6z M554.3,335.2c3.5,0,5.6,2,5.6,6.3c0,0.4,0,0.8-0.1,1.2h-9.2
	c0,3.6,1,5.8,4,5.8c2,0,3.1-0.8,3.8-2.5l1.3,0.4c-0.8,2.3-2.6,3.8-5.6,3.8c-4.4,0-6.5-3-6.5-7.4C547.6,338,550.5,335.2,554.3,335.2z
	 M557.1,341.2v-0.6c0-2.6-0.9-4-2.9-4c-2.3,0-3.4,2.1-3.6,4.7H557.1z M562.5,345.1h1.1c0.2,2.6,2.3,3.8,4.4,3.8
	c1.8,0,2.9-0.9,2.9-2.5c0-2-1.7-2.3-3.6-2.7c-2.2-0.4-4.5-0.9-4.5-4c0-2.5,2.1-4.4,4.7-4.4c1.1,0,2.1,0.3,2.8,0.7
	c0.2,0.1,0.4,0.2,0.5,0.2c0.3,0,0.5-0.3,0.5-0.8h1v4.5h-1.1c-0.6-2.2-1.7-3.2-3.7-3.2c-1.5,0-2.6,0.9-2.6,2.2c0,1.7,1.6,2,3.5,2.4
	c2.2,0.4,4.6,1,4.6,4.4c0,2.7-1.6,4.8-4.9,4.8c-1.7,0-2.8-0.5-3.8-1.1c-0.1-0.1-0.2-0.1-0.3-0.1c-0.2,0-0.4,0.2-0.5,1.2h-1V345.1z
	 M95.5,108.4c0-6.6-4.5-7.8-13.4-10.1C74,96.2,69,93.8,69,85c0-7,4.7-14.2,14.7-14.2c5.4,0,8.1,2.1,9.8,2.1c1,0,1.3-0.6,1.8-1.5h2.1
	l0.5,14.2h-2.6c-2.2-8.7-5.8-11.5-11.7-11.5c-5.7,0-9.4,3-9.4,7.6c0,5.6,4.7,7.4,10.8,9c7.6,2,15.5,4.1,15.5,14.6
	c0,8.9-5.6,15.6-16.2,15.6c-6.5,0-9.1-2-11.2-2c-1,0-1.2,0.8-1.8,2.2h-2.2l-0.7-16H71c2.1,7.8,4.4,12.6,13.1,12.6
	C91.4,117.7,95.5,114.1,95.5,108.4z M113.9,102.6c0,9,2.6,14.3,9.8,14.3c5.1,0,7.5-3.3,8.7-6.2l3.1,1c-1,3.2-4.4,9.2-13.1,9.2
	c-10.2,0-15.6-6.6-15.6-17c0-12.5,7-19,16.9-19c6.9,0,11.9,3.7,11.9,9.4c0,4.1-2.4,5.7-5,5.7c-2.4,0-4.4-1.5-4.4-4
	c0-0.8,0.1-2,0.7-3.1h2.4c0.1-0.6,0.2-1,0.2-1.5c0-2.3-1.9-3.2-5.5-3.2C117.2,88.2,113.9,93.4,113.9,102.6z M151.9,85.4V117l5.3,0.5
	v2.8h-17.1v-2.8l5.2-0.5V89.1l-5.2-0.5v-2.7L151.9,85.4z M147.8,69.6c2.5,0,4.4,1.1,4.4,4.2c0,2.7-1.5,4.2-4.3,4.2
	c-3.3,0-4.4-1.9-4.4-4.2C143.5,71.5,144.8,69.6,147.8,69.6z M177.5,85c8.3,0,13.4,4.8,13.4,15.1c0,0.9-0.1,1.9-0.1,2.9h-22.1
	c0,8.5,2.5,13.9,9.6,13.9c4.8,0,7.3-1.9,9-6l3.1,1c-1.8,5.4-6.2,9.1-13.4,9.1c-10.6,0-15.5-7.1-15.5-17.6
	C161.4,91.7,168.4,85,177.5,85z M184.1,99.3v-1.5c0-6.3-2.2-9.6-6.9-9.6c-5.4,0-8.2,5.1-8.6,11.1H184.1z M206.1,85.4l0.5,6.6h0.2
	c1.9-3.4,5.8-7,12.1-7c7.4,0,10.6,3.7,10.6,11.8V117l4.6,0.5v2.8h-15.8v-2.8l4.6-0.5V96.8c0-4.6-1-7.2-6.4-7.2
	c-4.9,0-9.2,3.2-9.2,8.8V117l4.7,0.5v2.8h-15.8v-2.8l4.5-0.5V89.1l-4.5-0.5v-2.7L206.1,85.4z M246,102.6c0,9,2.6,14.3,9.8,14.3
	c5.1,0,7.5-3.3,8.7-6.2l3.1,1c-1,3.2-4.4,9.2-13.1,9.2c-10.2,0-15.6-6.6-15.6-17c0-12.5,7-19,16.9-19c6.9,0,11.9,3.7,11.9,9.4
	c0,4.1-2.4,5.7-5,5.7c-2.4,0-4.4-1.5-4.4-4c0-0.8,0.1-2,0.7-3.1h2.4c0.1-0.6,0.2-1,0.2-1.5c0-2.3-1.9-3.2-5.5-3.2
	C249.3,88.2,246,93.4,246,102.6z M288.8,85c8.3,0,13.4,4.8,13.4,15.1c0,0.9-0.1,1.9-0.1,2.9H280c0,8.5,2.5,13.9,9.6,13.9
	c4.8,0,7.3-1.9,9-6l3.1,1c-1.8,5.4-6.2,9.1-13.4,9.1c-10.6,0-15.5-7.1-15.5-17.6C272.8,91.7,279.7,85,288.8,85z M295.5,99.3v-1.5
	c0-6.3-2.2-9.6-6.9-9.6c-5.4,0-8.2,5.1-8.6,11.1H295.5z M80,167.2h21.6v-18.6l-5.5-0.5v-2.8h18.3v2.7l-5.5,0.5v42.1l5.5,0.6v2.7
	H96.1v-2.7l5.5-0.6V171H80v19.7l5.5,0.6v2.7H67.3v-2.7l5.5-0.6v-42.1l-5.5-0.5v-2.8h18.3v2.7l-5.5,0.5V167.2z M131.5,159.2v31.5
	l5.3,0.5v2.8h-17.1v-2.8l5.2-0.5v-27.9l-5.2-0.5v-2.7L131.5,159.2z M127.4,143.4c2.5,0,4.4,1.1,4.4,4.2c0,2.7-1.5,4.2-4.3,4.2
	c-3.3,0-4.4-1.9-4.4-4.2C123.1,145.2,124.4,143.4,127.4,143.4z M141.9,182.3h2.7c0.4,6.2,5.5,9,10.4,9c4.4,0,6.9-2.1,6.9-6
	c0-4.7-4.1-5.6-8.5-6.4c-5.2-1-10.8-2.1-10.8-9.6c0-6,4.9-10.6,11.3-10.6c2.7,0,5,0.6,6.7,1.6c0.5,0.3,0.9,0.4,1.2,0.4
	c0.8,0,1.1-0.8,1.2-2h2.3v10.8h-2.7c-1.3-5.1-4.2-7.6-8.7-7.6c-3.6,0-6.3,2.2-6.3,5.1c0,4,3.9,4.7,8.4,5.6c5.3,1,11,2.4,11,10.5
	c0,6.4-3.9,11.5-11.7,11.5c-4,0-6.8-1.2-9.1-2.6c-0.3-0.1-0.6-0.3-0.8-0.3c-0.6,0-0.9,0.5-1.1,2.8h-2.4V182.3z M176.4,162.9h-5.2
	v-3.4h5.2v-9l5-1.4h1.6v10.3h7.6v3.4H183v22.6c0,3.8,0.9,5.3,3.6,5.3c2.6,0,4.2-1.2,5.3-5.5l2.6,0.7c-1.4,5.9-4.2,8.7-10.1,8.7
	c-5,0-8.1-2.4-8.1-8.2V162.9z M214.2,158.7c10.6,0,15.7,7.4,15.7,17.9c0,10.8-6,18.1-16.1,18.1c-10.4,0-15.8-7.3-15.8-17.8
	C198,166.1,204.3,158.7,214.2,158.7z M213.8,162c-7.1,0-8.6,6.8-8.6,14.4c0,7.8,1.6,15,8.8,15c6.9,0,8.6-6.8,8.6-14.5
	C222.7,169.3,221.1,162,213.8,162z M253.7,191.2v2.8h-18.6v-2.8l4.5-0.5v-27.9l-4.5-0.5v-2.7l10-0.4l0.5,6h0.3c2-3.6,4.9-6.5,10-6.5
	c3.8,0,7.1,2.3,7.1,6.5c0,3.7-1.9,5.4-4.9,5.4c-2.8,0-4.5-1.7-4.4-4.7l2.2-0.9c0.1-0.3,0.1-0.6,0.1-0.8c0-1.2-1-1.7-2.3-1.7
	c-3.7,0-7.5,4.8-7.5,8.8v19.4L253.7,191.2z M265.9,159.5h15.3v2.8l-4.8,0.3l8.1,23.7h0.3l8-23.7l-4.8-0.3v-2.8h12.4v2.8l-3.5,0.3
	l-13.3,36.8c-2.2,6-4,9.3-9.8,9.3c-4.2,0-8-2.2-8-6.6c0-2.6,1.6-4.9,4.6-4.9c2.2,0,3.9,1.5,4,4.6l-2.6,1.5c-0.3,1.7,0.9,2.4,2.8,2.4
	c2.9,0,3.7-1.9,6.1-9l0.6-1.9l-12.2-32.1l-3.1-0.3V159.5z M72.7,222.4l-5.5-0.5v-2.8h18.3v2.7l-5.5,0.5v42.1l5.5,0.5v2.8H67.3V265
	l5.5-0.5V222.4z M101.1,232.9l0.5,6.6h0.2c1.9-3.4,5.8-7,12.1-7c7.4,0,10.6,3.7,10.6,11.8v20.2l4.6,0.5v2.8h-15.8v-2.8l4.6-0.5
	v-20.1c0-4.6-1-7.2-6.4-7.2c-4.9,0-9.2,3.2-9.2,8.8v18.5l4.7,0.5v2.8H91.2v-2.8l4.5-0.5v-27.9l-4.5-0.5v-2.7L101.1,232.9z
	 M134.4,256h2.7c0.4,6.2,5.5,9,10.4,9c4.4,0,6.9-2.1,6.9-6c0-4.7-4.1-5.6-8.5-6.4c-5.2-1-10.8-2.1-10.8-9.6c0-6,4.9-10.6,11.3-10.6
	c2.7,0,5,0.6,6.7,1.6c0.5,0.3,0.9,0.4,1.2,0.4c0.8,0,1.1-0.8,1.2-2h2.3v10.8h-2.7c-1.3-5.1-4.2-7.6-8.7-7.6c-3.6,0-6.3,2.2-6.3,5.1
	c0,4,3.9,4.7,8.4,5.6c5.3,1,11,2.4,11,10.6c0,6.4-3.9,11.5-11.7,11.5c-4,0-6.8-1.2-9.1-2.6c-0.3-0.1-0.6-0.3-0.8-0.3
	c-0.6,0-0.9,0.5-1.1,2.8h-2.4V256z M168.9,236.6h-5.2v-3.4h5.2v-9l5-1.4h1.6v10.3h7.6v3.4h-7.6v22.6c0,3.8,0.9,5.3,3.6,5.3
	c2.6,0,4.2-1.2,5.3-5.5l2.6,0.7c-1.4,5.9-4.2,8.7-10.1,8.7c-5,0-8.1-2.4-8.1-8.2V236.6z M202.3,232.9v31.5l5.3,0.5v2.8h-17.1v-2.8
	l5.2-0.5v-27.9l-5.2-0.5v-2.7L202.3,232.9z M198.2,217.1c2.5,0,4.4,1.1,4.4,4.2c0,2.7-1.5,4.2-4.3,4.2c-3.3,0-4.4-1.9-4.4-4.2
	C193.9,219,195.2,217.1,198.2,217.1z M216.3,236.6h-5.2v-3.4h5.2v-9l5-1.4h1.6v10.3h7.6v3.4h-7.6v22.6c0,3.8,0.9,5.3,3.6,5.3
	c2.6,0,4.2-1.2,5.3-5.5l2.6,0.7c-1.4,5.9-4.2,8.7-10.1,8.7c-5,0-8.1-2.4-8.1-8.2V236.6z M247.7,256.7c0,4.6,1.2,7.1,6.3,7.1
	c4.9,0,9-3.1,9-9.4v-17.9l-4.7-0.5v-2.7l11.3-0.4v31.5l4.5,0.5v2.8h-10.1l-0.3-5.9h-0.3c-1.9,3.4-5.7,6.7-11.7,6.7
	c-7.4,0-10.7-3.7-10.7-11.8v-20.1l-4.6-0.5v-2.7l11.2-0.4V256.7z M281.9,236.6h-5.2v-3.4h5.2v-9l5-1.4h1.6v10.3h7.6v3.4h-7.6v22.6
	c0,3.8,0.9,5.3,3.6,5.3c2.6,0,4.2-1.2,5.3-5.5l2.6,0.7c-1.4,5.9-4.2,8.7-10.1,8.7c-5,0-8.1-2.4-8.1-8.2V236.6z M319.5,232.4
	c8.3,0,13.4,4.8,13.4,15.1c0,0.9-0.1,1.9-0.1,2.9h-22.1c0,8.5,2.5,13.9,9.6,13.9c4.8,0,7.3-1.9,9-6l3.1,1c-1.8,5.4-6.2,9.1-13.4,9.1
	c-10.6,0-15.5-7.1-15.5-17.6C303.5,239.2,310.4,232.4,319.5,232.4z M326.2,246.7v-1.5c0-6.3-2.2-9.6-6.9-9.6
	c-5.4,0-8.2,5.1-8.6,11.1H326.2z M574,305.9L574,305.9c0-0.6-0.6-1-1.2-1H68.7c-0.7,0-1.2,0.5-1.2,1l0,0c0,0.6,0.6,1.1,1.2,1.1
	h504.1C573.5,306.9,574,306.5,574,305.9z M578.4,177l-80.8-6.1c0-0.4,0.1-0.7,0.1-1.1c0-0.4,0-0.8-0.1-1.1l80.8-6.1
	c0.6,0,1-0.5,1-1.1c0,0,0-0.1,0-0.1c0-0.6-0.6-1.1-1.2-1l-80.8,6.1c-0.1-0.8-0.2-1.5-0.3-2.2l79-18c0.5-0.1,0.9-0.6,0.9-1.1
	c0-0.1,0-0.2,0-0.3c-0.1-0.6-0.7-1-1.4-0.8l-79,18c-0.2-0.7-0.4-1.5-0.7-2.2l75.4-29.6c0.4-0.2,0.7-0.6,0.7-1.1c0-0.1,0-0.3-0.1-0.4
	c-0.2-0.6-0.9-0.9-1.5-0.6l-75.4,29.6c-0.3-0.7-0.6-1.4-1-2l70.1-40.5c0.4-0.2,0.6-0.6,0.6-1c0-0.2,0-0.4-0.2-0.6
	c-0.3-0.5-1-0.7-1.5-0.4L493,153.7c-0.4-0.6-0.8-1.3-1.3-1.9l63.3-50.5c0.3-0.2,0.4-0.6,0.4-0.9c0-0.2-0.1-0.5-0.2-0.7
	c-0.4-0.5-1.1-0.6-1.6-0.2l-63.3,50.5c-0.5-0.6-1-1.1-1.5-1.7L543.8,89c0.2-0.2,0.3-0.5,0.3-0.8c0-0.3-0.1-0.6-0.4-0.8
	c-0.5-0.4-1.2-0.4-1.6,0.1l-55.1,59.4c-0.6-0.5-1.2-1-1.8-1.4l45.6-66.9c0.1-0.2,0.2-0.4,0.2-0.6c0-0.4-0.2-0.7-0.5-0.9
	c-0.5-0.3-1.2-0.2-1.6,0.3l-45.6,66.9c-0.6-0.4-1.3-0.8-2-1.2l35.1-73c0.1-0.2,0.1-0.3,0.1-0.5c0-0.4-0.2-0.8-0.6-1
	c-0.6-0.3-1.2,0-1.5,0.5l-35.1,73c-0.7-0.3-1.4-0.6-2.1-0.8l23.9-77.4c0-0.1,0.1-0.2,0.1-0.3c0-0.5-0.3-0.9-0.8-1.1
	c-0.6-0.2-1.2,0.1-1.4,0.7l-23.9,77.4c-0.7-0.2-1.5-0.4-2.2-0.5L485,60c0-0.1,0-0.1,0-0.2c0-0.5-0.4-1-1-1.1
	c-0.6-0.1-1.2,0.3-1.3,0.9l-12.1,80.1c-0.7-0.1-1.5-0.1-2.3-0.1v-81c0-0.6-0.5-1.1-1.1-1.1c-0.6,0-1.1,0.5-1.1,1.1v81
	c-0.8,0-1.5,0.1-2.3,0.1l-12.1-80.1c-0.1-0.6-0.7-1-1.3-0.9c-0.6,0.1-1,0.6-1,1.1c0,0.1,0,0.1,0,0.2l12.1,80.1
	c-0.7,0.1-1.5,0.3-2.2,0.5l-23.9-77.4c-0.2-0.6-0.8-0.9-1.4-0.7c-0.5,0.2-0.8,0.6-0.8,1.1c0,0.1,0,0.2,0.1,0.3l23.9,77.4
	c-0.7,0.3-1.4,0.5-2.1,0.8l-35.1-73c-0.3-0.6-1-0.8-1.5-0.5c-0.4,0.2-0.6,0.6-0.6,1c0,0.2,0,0.3,0.1,0.5l35.1,73
	c-0.7,0.4-1.3,0.7-2,1.2l-45.6-66.9c-0.4-0.5-1.1-0.6-1.6-0.3c-0.3,0.2-0.5,0.6-0.5,0.9c0,0.2,0.1,0.4,0.2,0.6l45.6,66.9
	c-0.6,0.5-1.2,0.9-1.8,1.4l-55.1-59.4c-0.4-0.5-1.1-0.5-1.6-0.1c-0.2,0.2-0.4,0.5-0.4,0.8c0,0.3,0.1,0.5,0.3,0.8l55.1,59.4
	c-0.5,0.5-1,1.1-1.5,1.7l-63.3-50.5c-0.5-0.4-1.2-0.3-1.6,0.2c-0.2,0.2-0.2,0.5-0.2,0.7c0,0.3,0.1,0.7,0.4,0.9l63.3,50.5
	c-0.4,0.6-0.9,1.2-1.3,1.9l-70.1-40.5c-0.5-0.3-1.2-0.1-1.5,0.4c-0.1,0.2-0.2,0.4-0.2,0.6c0,0.4,0.2,0.8,0.6,1l70.1,40.5
	c-0.4,0.7-0.7,1.3-1,2l-75.4-29.6c-0.6-0.2-1.2,0.1-1.5,0.6c-0.1,0.1-0.1,0.3-0.1,0.4c0,0.5,0.3,0.9,0.7,1.1l75.4,29.6
	c-0.2,0.7-0.5,1.4-0.7,2.2l-79-18c-0.6-0.1-1.2,0.2-1.4,0.8c0,0.1,0,0.2,0,0.3c0,0.5,0.4,1,0.9,1.1l79,18c-0.1,0.7-0.3,1.5-0.3,2.2
	l-80.8-6.1c-0.6-0.1-1.2,0.4-1.2,1c0,0,0,0.1,0,0.1c0,0.6,0.5,1.1,1,1.1l80.8,6.1c0,0.4-0.1,0.8-0.1,1.1c0,0.4,0,0.8,0.1,1.1
	l-80.8,6.1c-0.6,0-1,0.5-1,1.1c0,0,0,0.1,0,0.1c0,0.6,0.6,1.1,1.2,1l80.8-6.1c0.1,0.8,0.2,1.5,0.3,2.2l-79,18
	c-0.5,0.1-0.9,0.6-0.9,1.1c0,0.1,0,0.2,0,0.3c0.1,0.6,0.7,1,1.4,0.8l79-18c0.2,0.7,0.4,1.5,0.7,2.2l-75.4,29.6
	c-0.4,0.2-0.7,0.6-0.7,1.1c0,0.1,0,0.3,0.1,0.4c0.2,0.6,0.9,0.9,1.5,0.6l75.4-29.6c0.3,0.7,0.6,1.4,1,2l-70.1,40.5
	c-0.4,0.2-0.6,0.6-0.6,1c0,0.2,0,0.4,0.2,0.6c0.3,0.5,1,0.7,1.5,0.4l70.1-40.5c0.4,0.6,0.8,1.3,1.3,1.9l-63.3,50.5
	c-0.3,0.2-0.4,0.6-0.4,0.9c0,0.2,0.1,0.5,0.2,0.7c0.4,0.5,1.1,0.6,1.6,0.2l63.3-50.5c0.5,0.6,1,1.1,1.5,1.7l-55.1,59.4
	c-0.2,0.2-0.3,0.5-0.3,0.8c0,0.3,0.1,0.6,0.4,0.8c0.5,0.4,1.2,0.4,1.6-0.1l55.1-59.4c0.6,0.5,1.2,1,1.8,1.4l-45.6,66.9
	c-0.1,0.2-0.2,0.4-0.2,0.6c0,0.4,0.2,0.7,0.5,0.9c0.5,0.4,1.2,0.2,1.6-0.3l45.6-66.9c0.6,0.4,1.3,0.8,2,1.2l-35.1,73
	c-0.1,0.2-0.1,0.3-0.1,0.5c0,0.4,0.2,0.8,0.6,1c0.6,0.3,1.2,0,1.5-0.5l35.1-73c0.7,0.3,1.4,0.6,2.1,0.8l-23.9,77.4
	c0,0.1-0.1,0.2-0.1,0.3c0,0.5,0.3,0.9,0.8,1.1c0.6,0.2,1.2-0.2,1.4-0.7l23.9-77.4c0.7,0.2,1.5,0.4,2.2,0.5l-12.1,80.1
	c0,0.1,0,0.1,0,0.2c0,0.5,0.4,1,1,1.1c0.6,0.1,1.2-0.3,1.3-0.9l12.1-80.1c0.7,0.1,1.5,0.1,2.3,0.1v81c0,0.6,0.5,1.1,1.1,1.1
	c0.6,0,1.1-0.5,1.1-1.1v-81c0.8,0,1.5-0.1,2.3-0.1l12.1,80.1c0.1,0.6,0.7,1.1,1.3,0.9c0.6-0.1,1-0.6,1-1.1c0-0.1,0-0.1,0-0.2
	L473,199.6c0.7-0.1,1.5-0.3,2.2-0.5l23.9,77.4c0.2,0.6,0.8,0.9,1.4,0.7c0.5-0.2,0.8-0.6,0.8-1.1c0-0.1,0-0.2-0.1-0.3l-23.9-77.4
	c0.7-0.3,1.4-0.5,2.1-0.8l35.1,73c0.3,0.6,1,0.8,1.5,0.5c0.4-0.2,0.6-0.6,0.6-1c0-0.2,0-0.3-0.1-0.5l-35.1-73c0.7-0.4,1.3-0.7,2-1.2
	l45.6,66.9c0.4,0.5,1.1,0.6,1.6,0.3c0.3-0.2,0.5-0.6,0.5-0.9c0-0.2-0.1-0.4-0.2-0.6l-45.6-66.9c0.6-0.5,1.2-0.9,1.8-1.4l55.1,59.4
	c0.4,0.5,1.1,0.5,1.6,0.1c0.2-0.2,0.4-0.5,0.4-0.8c0-0.3-0.1-0.5-0.3-0.8l-55.1-59.4c0.5-0.5,1-1.1,1.5-1.7l63.3,50.5
	c0.5,0.4,1.2,0.3,1.6-0.2c0.2-0.2,0.2-0.5,0.2-0.7c0-0.3-0.1-0.7-0.4-0.9l-63.3-50.5c0.4-0.6,0.9-1.2,1.3-1.9l70.1,40.5
	c0.5,0.3,1.2,0.1,1.5-0.4c0.1-0.2,0.2-0.4,0.2-0.6c0-0.4-0.2-0.8-0.6-1L494.1,184c0.4-0.7,0.7-1.3,1-2l75.4,29.6
	c0.6,0.2,1.2-0.1,1.5-0.6c0.1-0.1,0.1-0.3,0.1-0.4c0-0.5-0.3-0.9-0.7-1.1l-75.4-29.6c0.2-0.7,0.5-1.4,0.7-2.2l79,18
	c0.6,0.1,1.2-0.2,1.4-0.8c0-0.1,0-0.2,0-0.3c0-0.5-0.4-1-0.9-1.1l-79-18c0.1-0.7,0.3-1.5,0.3-2.2l80.8,6.1c0.6,0,1.2-0.4,1.2-1
	c0,0,0-0.1,0-0.1C579.4,177.6,579,177.1,578.4,177z M495.2,173c-0.1,0.6-0.2,1.3-0.3,1.9c-0.1,0.7-0.3,1.5-0.5,2.2
	c-0.2,0.6-0.4,1.2-0.6,1.8c-0.2,0.7-0.5,1.4-0.8,2.1c-0.3,0.6-0.5,1.2-0.8,1.7c-0.4,0.7-0.7,1.3-1.1,1.9c-0.3,0.5-0.7,1.1-1.1,1.6
	c-0.4,0.6-0.9,1.2-1.4,1.8c-0.4,0.5-0.8,1-1.3,1.4c-0.5,0.5-1.1,1-1.7,1.5c-0.5,0.4-1,0.8-1.5,1.2c-0.6,0.5-1.2,0.9-1.9,1.3
	c-0.5,0.3-1.1,0.7-1.7,1c-0.7,0.4-1.3,0.7-2,1c-0.6,0.3-1.2,0.5-1.8,0.7c-0.7,0.3-1.4,0.5-2.2,0.7c-0.6,0.2-1.2,0.3-1.9,0.4
	c-0.7,0.1-1.5,0.3-2.2,0.3c-0.6,0.1-1.3,0.1-1.9,0.1c-0.4,0-0.7,0.1-1.1,0.1c-0.4,0-0.8,0-1.1-0.1c-0.6,0-1.3,0-1.9-0.1
	c-0.8-0.1-1.5-0.2-2.2-0.3c-0.6-0.1-1.3-0.3-1.9-0.4c-0.7-0.2-1.5-0.4-2.2-0.7c-0.6-0.2-1.2-0.4-1.8-0.7c-0.7-0.3-1.4-0.6-2-1
	c-0.6-0.3-1.1-0.6-1.7-1c-0.6-0.4-1.3-0.8-1.9-1.3c-0.5-0.4-1-0.8-1.5-1.2c-0.6-0.5-1.1-1-1.7-1.5c-0.5-0.5-0.9-0.9-1.3-1.4
	c-0.5-0.6-1-1.2-1.4-1.8c-0.4-0.5-0.7-1-1.1-1.6c-0.4-0.6-0.8-1.3-1.1-1.9c-0.3-0.6-0.6-1.1-0.8-1.7c-0.3-0.7-0.6-1.4-0.8-2.1
	c-0.2-0.6-0.4-1.2-0.6-1.8c-0.2-0.7-0.4-1.5-0.5-2.2c-0.1-0.6-0.2-1.3-0.3-1.9c-0.1-0.7-0.1-1.5-0.2-2.3c0-0.3,0-0.6,0-1
	c0-0.3,0-0.6,0-1c0-0.8,0.1-1.5,0.2-2.3c0.1-0.6,0.2-1.3,0.3-1.9c0.1-0.7,0.3-1.5,0.5-2.2c0.2-0.6,0.4-1.2,0.6-1.8
	c0.2-0.7,0.5-1.4,0.8-2.1c0.3-0.6,0.5-1.2,0.8-1.7c0.4-0.7,0.7-1.3,1.1-1.9c0.3-0.5,0.7-1.1,1.1-1.6c0.4-0.6,0.9-1.2,1.4-1.8
	c0.4-0.5,0.8-1,1.3-1.4c0.5-0.5,1.1-1,1.7-1.5c0.5-0.4,1-0.8,1.5-1.2c0.6-0.4,1.2-0.9,1.9-1.3c0.5-0.3,1.1-0.7,1.7-1
	c0.7-0.4,1.3-0.7,2-1c0.6-0.3,1.2-0.5,1.8-0.7c0.7-0.3,1.4-0.5,2.2-0.7c0.6-0.2,1.2-0.3,1.9-0.4c0.7-0.1,1.5-0.3,2.2-0.3
	c0.6-0.1,1.3-0.1,1.9-0.1c0.4,0,0.7-0.1,1.1-0.1c0.4,0,0.8,0,1.1,0.1c0.6,0,1.3,0,1.9,0.1c0.8,0.1,1.5,0.2,2.2,0.3
	c0.6,0.1,1.3,0.3,1.9,0.4c0.7,0.2,1.5,0.4,2.2,0.7c0.6,0.2,1.2,0.4,1.8,0.7c0.7,0.3,1.4,0.6,2,1c0.6,0.3,1.1,0.6,1.7,1
	c0.6,0.4,1.3,0.8,1.9,1.3c0.5,0.4,1,0.8,1.5,1.2c0.6,0.5,1.1,1,1.7,1.5c0.5,0.5,0.9,0.9,1.3,1.4c0.5,0.6,1,1.2,1.4,1.8
	c0.4,0.5,0.7,1,1.1,1.6c0.4,0.6,0.8,1.3,1.1,1.9c0.3,0.6,0.6,1.1,0.8,1.7c0.3,0.7,0.6,1.4,0.8,2.1c0.2,0.6,0.4,1.2,0.6,1.8
	c0.2,0.7,0.4,1.5,0.5,2.2c0.1,0.6,0.2,1.3,0.3,1.9c0.1,0.7,0.1,1.5,0.2,2.3c0,0.3,0,0.6,0,1c0,0.3,0,0.6,0,1
	C495.3,171.5,495.3,172.3,495.2,173z M467.3,159.7c-5.6,0-10.2,4.6-10.2,10.2c0,5.6,4.6,10.2,10.2,10.2s10.2-4.6,10.2-10.2
	C477.5,164.2,473,159.7,467.3,159.7z"/>
</svg>
